<svg width="142" height="32" viewBox="0 0 142 32" fill="none" xmlns="http://www.w3.org/2000/svg">
<path d="M10.0536 8.30086C9.5566 7.74017 8.8892 7.50769 8.5697 7.77436C8.2502 8.04103 8.3993 8.71111 8.8963 9.2718C9.4004 9.83248 10.0678 10.0718 10.3873 9.79829C10.6997 9.52479 10.5577 8.86154 10.0536 8.30086ZM15.1727 7.77436C14.8603 7.50769 14.1858 7.74017 13.6888 8.30086C13.1847 8.86154 13.0356 9.53162 13.3551 9.79829C13.6746 10.0718 14.342 9.83248 14.8461 9.2718C15.3431 8.71111 15.4993 8.04103 15.1727 7.77436ZM15.1727 7.77436C14.8603 7.50769 14.1858 7.74017 13.6888 8.30086C13.1847 8.86154 13.0356 9.53162 13.3551 9.79829C13.6746 10.0718 14.342 9.83248 14.8461 9.2718C15.3431 8.71111 15.4993 8.04103 15.1727 7.77436ZM8.5626 7.77436C8.2431 8.04103 8.3922 8.71111 8.8892 9.2718C9.3933 9.83248 10.0607 10.0718 10.3802 9.79829C10.6926 9.53162 10.5506 8.86838 10.0465 8.30086C9.5495 7.74017 8.8892 7.50769 8.5626 7.77436ZM21.9177 22.947C20.9095 22.947 20.093 23.7402 20.093 24.7043C20.093 25.306 20.4054 25.8393 20.8882 26.1538C20.7462 26.4957 20.3983 26.735 19.9936 26.735C19.4682 26.735 19.0422 26.3248 19.0422 25.8188V18.8786C19.0422 17.6615 18.7085 16.4718 18.0837 15.4325C17.4447 14.359 16.5217 13.4974 15.4425 12.8889C16.0318 12.5675 16.5714 12.1573 17.0471 11.6855C18.1476 12.4171 19.0706 13.3744 19.7451 14.4957C20.4622 15.6923 20.8669 17.0393 20.945 18.4274C20.4409 18.735 20.1001 19.2821 20.1001 19.9043C20.1001 20.8752 20.9166 21.6615 21.9248 21.6615C22.933 21.6615 23.7495 20.8752 23.7495 19.9043C23.7495 19.2684 23.3945 18.7214 22.8762 18.4068C22.7981 16.7043 22.294 15.0359 21.4065 13.5658C20.6042 12.2256 19.4895 11.0769 18.1831 10.188C18.7511 9.18291 19.0493 8.06154 19.0493 6.89915C19.0422 3.10427 15.8259 0 11.8712 0C7.9094 0 4.6931 3.10427 4.6931 6.91282C4.6931 8.07521 4.9984 9.19658 5.5593 10.2017C4.2529 11.0906 3.1382 12.2325 2.3359 13.5795C1.4555 15.0496 0.9443 16.7179 0.8733 18.4205C0.355 18.7214 0 19.2752 0 19.9111C0 20.8821 0.8165 21.6684 1.8247 21.6684C2.8329 21.6684 3.6494 20.8821 3.6494 19.9111C3.6494 19.2889 3.3157 18.7487 2.8045 18.4342C2.8755 17.0462 3.2873 15.6991 4.0044 14.5026C4.6718 13.3812 5.6019 12.4239 6.7024 11.6923C7.1781 12.1641 7.7177 12.5744 8.307 12.8957C7.2278 13.4974 6.3048 14.3658 5.6658 15.4393C5.041 16.4786 4.7073 17.6684 4.7073 18.8855V25.8256C4.7073 26.3316 4.2813 26.7419 3.7559 26.7419C3.3512 26.7419 3.0033 26.5026 2.8684 26.1607C3.3441 25.8462 3.6565 25.3128 3.6565 24.7111C3.6565 23.747 2.84 22.9538 1.8318 22.9538C0.8236 22.947 0 23.7402 0 24.7043C0 25.347 0.3621 25.9145 0.9017 26.2154C1.1076 27.5556 2.2933 28.588 3.7417 28.588C5.325 28.588 6.6172 27.3436 6.6172 25.8188V18.8786C6.6172 17.9897 6.8515 17.1145 7.313 16.3556C8.2502 14.7897 9.9968 13.8188 11.8712 13.8188C13.7385 13.8188 15.4851 14.7966 16.4223 16.3556C16.8838 17.1145 17.1181 17.9897 17.1181 18.8786V25.8188C17.1181 27.3436 18.4103 28.588 19.9936 28.588C21.442 28.588 22.6348 27.5556 22.8336 26.2154C23.3732 25.9145 23.7353 25.347 23.7353 24.7043C23.7353 23.7402 22.9259 22.947 21.9177 22.947ZM21.9177 19.4462C22.1804 19.4462 22.4005 19.6581 22.4005 19.9111C22.4005 20.1709 22.1804 20.3829 21.9177 20.3829C21.6479 20.3829 21.4349 20.1709 21.4349 19.9111C21.4349 19.6581 21.6479 19.4462 21.9177 19.4462ZM1.8247 20.3761C1.562 20.3761 1.3419 20.1641 1.3419 19.9043C1.3419 19.6513 1.562 19.4393 1.8247 19.4393C2.0945 19.4393 2.3146 19.6513 2.3146 19.9043C2.3075 20.1709 2.0945 20.3761 1.8247 20.3761ZM1.8247 25.1761C1.562 25.1761 1.3419 24.9641 1.3419 24.7043C1.3419 24.4513 1.562 24.2393 1.8247 24.2393C2.0945 24.2393 2.3146 24.4513 2.3146 24.7043C2.3075 24.9641 2.0945 25.1761 1.8247 25.1761ZM7.6538 9.92821C6.9722 9.04615 6.6172 8 6.6172 6.91282C6.6172 4.11624 8.9744 1.85299 11.8712 1.85299C14.768 1.85299 17.1181 4.12308 17.1181 6.91282C17.1181 8 16.7631 9.04615 16.0886 9.92821C15.0946 11.2068 13.5184 11.9727 11.8712 11.9727C10.224 11.9727 8.6407 11.2068 7.6538 9.92821ZM21.9177 25.1761C21.6479 25.1761 21.4349 24.9641 21.4349 24.7043C21.4349 24.4513 21.6479 24.2393 21.9177 24.2393C22.1804 24.2393 22.4005 24.4513 22.4005 24.7043C22.3934 24.9641 22.1804 25.1761 21.9177 25.1761ZM13.6888 8.30086C13.1847 8.86154 13.0356 9.53162 13.3551 9.79829C13.6746 10.0718 14.342 9.83248 14.8461 9.2718C15.3431 8.71111 15.4993 8.04103 15.1727 7.77436C14.8603 7.50769 14.1858 7.74017 13.6888 8.30086ZM8.5626 7.77436C8.2431 8.04103 8.3922 8.71111 8.8892 9.2718C9.3933 9.83248 10.0607 10.0718 10.3802 9.79829C10.6926 9.53162 10.5506 8.86838 10.0465 8.30086C9.5495 7.74017 8.8892 7.50769 8.5626 7.77436ZM10.0536 8.30086C9.5566 7.74017 8.8892 7.50769 8.5697 7.77436C8.2502 8.04103 8.3993 8.71111 8.8963 9.2718C9.4004 9.83248 10.0678 10.0718 10.3873 9.79829C10.6997 9.52479 10.5577 8.86154 10.0536 8.30086ZM15.1727 7.77436C14.8603 7.50769 14.1858 7.74017 13.6888 8.30086C13.1847 8.86154 13.0356 9.53162 13.3551 9.79829C13.6746 10.0718 14.342 9.83248 14.8461 9.2718C15.3431 8.71111 15.4993 8.04103 15.1727 7.77436ZM15.2082 28.759V18.5368C15.2082 18.0034 15.0449 17.4906 14.7325 17.053C14.129 16.1983 13.0285 15.665 11.8712 15.665C10.7068 15.665 9.6134 16.1983 9.0099 17.0462C8.6975 17.4906 8.5271 18.0034 8.5271 18.5368V28.6906C7.9378 28.9778 7.5331 29.5727 7.5331 30.2496C7.5331 31.2205 8.3496 32.0068 9.3578 32.0068C10.366 32.0068 11.1825 31.2205 11.1825 30.2496C11.1825 29.6752 10.8914 29.1692 10.4441 28.841V18.5368C10.4441 18.3795 10.4938 18.2291 10.5861 18.0923C10.8346 17.7368 11.3458 17.5111 11.8712 17.5111C12.3966 17.5111 12.9007 17.7368 13.1492 18.0923C13.2415 18.2222 13.2912 18.3795 13.2912 18.5368V28.759C12.7729 29.0667 12.425 29.6205 12.425 30.2496C12.425 31.2205 13.2486 32.0068 14.2497 32.0068C15.2579 32.0068 16.0815 31.2205 16.0815 30.2496C16.0744 29.6205 15.7265 29.0667 15.2082 28.759ZM9.3578 30.7077C9.088 30.7077 8.875 30.5026 8.875 30.2427C8.875 29.9897 9.088 29.7778 9.3578 29.7778C9.6205 29.7778 9.8406 29.9897 9.8406 30.2427C9.8406 30.5094 9.6205 30.7077 9.3578 30.7077ZM14.2497 30.7077C13.987 30.7077 13.7669 30.5026 13.7669 30.2427C13.7669 29.9897 13.987 29.7778 14.2497 29.7778C14.5195 29.7778 14.7396 29.9897 14.7396 30.2427C14.7325 30.5094 14.5195 30.7077 14.2497 30.7077ZM10.0536 8.30086C9.5566 7.74017 8.8892 7.50769 8.5697 7.77436C8.2502 8.04103 8.3993 8.71111 8.8963 9.2718C9.4004 9.83248 10.0678 10.0718 10.3873 9.79829C10.6997 9.52479 10.5577 8.86154 10.0536 8.30086ZM15.1727 7.77436C14.8603 7.50769 14.1858 7.74017 13.6888 8.30086C13.1847 8.86154 13.0356 9.53162 13.3551 9.79829C13.6746 10.0718 14.342 9.83248 14.8461 9.2718C15.3431 8.71111 15.4993 8.04103 15.1727 7.77436Z" fill="url(#paint0_linear_126_272)"/>
<path d="M10.0536 8.30086C9.5566 7.74017 8.8892 7.50769 8.5697 7.77436C8.2502 8.04103 8.3993 8.71111 8.8963 9.2718C9.4004 9.83248 10.0678 10.0718 10.3873 9.79829C10.6997 9.52479 10.5577 8.86154 10.0536 8.30086ZM15.1727 7.77436C14.8603 7.50769 14.1858 7.74017 13.6888 8.30086C13.1847 8.86154 13.0356 9.53162 13.3551 9.79829C13.6746 10.0718 14.342 9.83248 14.8461 9.2718C15.3431 8.71111 15.4993 8.04103 15.1727 7.77436ZM15.1727 7.77436C14.8603 7.50769 14.1858 7.74017 13.6888 8.30086C13.1847 8.86154 13.0356 9.53162 13.3551 9.79829C13.6746 10.0718 14.342 9.83248 14.8461 9.2718C15.3431 8.71111 15.4993 8.04103 15.1727 7.77436ZM8.5626 7.77436C8.2431 8.04103 8.3922 8.71111 8.8892 9.2718C9.3933 9.83248 10.0607 10.0718 10.3802 9.79829C10.6926 9.53162 10.5506 8.86838 10.0465 8.30086C9.5495 7.74017 8.8892 7.50769 8.5626 7.77436ZM21.9177 22.947C20.9095 22.947 20.093 23.7402 20.093 24.7043C20.093 25.306 20.4054 25.8393 20.8882 26.1538C20.7462 26.4957 20.3983 26.735 19.9936 26.735C19.4682 26.735 19.0422 26.3248 19.0422 25.8188V18.8786C19.0422 17.6615 18.7085 16.4718 18.0837 15.4325C17.4447 14.359 16.5217 13.4974 15.4425 12.8889C16.0318 12.5675 16.5714 12.1573 17.0471 11.6855C18.1476 12.4171 19.0706 13.3744 19.7451 14.4957C20.4622 15.6923 20.8669 17.0393 20.945 18.4274C20.4409 18.735 20.1001 19.2821 20.1001 19.9043C20.1001 20.8752 20.9166 21.6615 21.9248 21.6615C22.933 21.6615 23.7495 20.8752 23.7495 19.9043C23.7495 19.2684 23.3945 18.7214 22.8762 18.4068C22.7981 16.7043 22.294 15.0359 21.4065 13.5658C20.6042 12.2256 19.4895 11.0769 18.1831 10.188C18.7511 9.18291 19.0493 8.06154 19.0493 6.89915C19.0422 3.10427 15.8259 0 11.8712 0C7.9094 0 4.6931 3.10427 4.6931 6.91282C4.6931 8.07521 4.9984 9.19658 5.5593 10.2017C4.2529 11.0906 3.1382 12.2325 2.3359 13.5795C1.4555 15.0496 0.9443 16.7179 0.8733 18.4205C0.355 18.7214 0 19.2752 0 19.9111C0 20.8821 0.8165 21.6684 1.8247 21.6684C2.8329 21.6684 3.6494 20.8821 3.6494 19.9111C3.6494 19.2889 3.3157 18.7487 2.8045 18.4342C2.8755 17.0462 3.2873 15.6991 4.0044 14.5026C4.6718 13.3812 5.6019 12.4239 6.7024 11.6923C7.1781 12.1641 7.7177 12.5744 8.307 12.8957C7.2278 13.4974 6.3048 14.3658 5.6658 15.4393C5.041 16.4786 4.7073 17.6684 4.7073 18.8855V25.8256C4.7073 26.3316 4.2813 26.7419 3.7559 26.7419C3.3512 26.7419 3.0033 26.5026 2.8684 26.1607C3.3441 25.8462 3.6565 25.3128 3.6565 24.7111C3.6565 23.747 2.84 22.9538 1.8318 22.9538C0.8236 22.947 0 23.7402 0 24.7043C0 25.347 0.3621 25.9145 0.9017 26.2154C1.1076 27.5556 2.2933 28.588 3.7417 28.588C5.325 28.588 6.6172 27.3436 6.6172 25.8188V18.8786C6.6172 17.9897 6.8515 17.1145 7.313 16.3556C8.2502 14.7897 9.9968 13.8188 11.8712 13.8188C13.7385 13.8188 15.4851 14.7966 16.4223 16.3556C16.8838 17.1145 17.1181 17.9897 17.1181 18.8786V25.8188C17.1181 27.3436 18.4103 28.588 19.9936 28.588C21.442 28.588 22.6348 27.5556 22.8336 26.2154C23.3732 25.9145 23.7353 25.347 23.7353 24.7043C23.7353 23.7402 22.9259 22.947 21.9177 22.947ZM21.9177 19.4462C22.1804 19.4462 22.4005 19.6581 22.4005 19.9111C22.4005 20.1709 22.1804 20.3829 21.9177 20.3829C21.6479 20.3829 21.4349 20.1709 21.4349 19.9111C21.4349 19.6581 21.6479 19.4462 21.9177 19.4462ZM1.8247 20.3761C1.562 20.3761 1.3419 20.1641 1.3419 19.9043C1.3419 19.6513 1.562 19.4393 1.8247 19.4393C2.0945 19.4393 2.3146 19.6513 2.3146 19.9043C2.3075 20.1709 2.0945 20.3761 1.8247 20.3761ZM1.8247 25.1761C1.562 25.1761 1.3419 24.9641 1.3419 24.7043C1.3419 24.4513 1.562 24.2393 1.8247 24.2393C2.0945 24.2393 2.3146 24.4513 2.3146 24.7043C2.3075 24.9641 2.0945 25.1761 1.8247 25.1761ZM7.6538 9.92821C6.9722 9.04615 6.6172 8 6.6172 6.91282C6.6172 4.11624 8.9744 1.85299 11.8712 1.85299C14.768 1.85299 17.1181 4.12308 17.1181 6.91282C17.1181 8 16.7631 9.04615 16.0886 9.92821C15.0946 11.2068 13.5184 11.9727 11.8712 11.9727C10.224 11.9727 8.6407 11.2068 7.6538 9.92821ZM21.9177 25.1761C21.6479 25.1761 21.4349 24.9641 21.4349 24.7043C21.4349 24.4513 21.6479 24.2393 21.9177 24.2393C22.1804 24.2393 22.4005 24.4513 22.4005 24.7043C22.3934 24.9641 22.1804 25.1761 21.9177 25.1761ZM13.6888 8.30086C13.1847 8.86154 13.0356 9.53162 13.3551 9.79829C13.6746 10.0718 14.342 9.83248 14.8461 9.2718C15.3431 8.71111 15.4993 8.04103 15.1727 7.77436C14.8603 7.50769 14.1858 7.74017 13.6888 8.30086ZM8.5626 7.77436C8.2431 8.04103 8.3922 8.71111 8.8892 9.2718C9.3933 9.83248 10.0607 10.0718 10.3802 9.79829C10.6926 9.53162 10.5506 8.86838 10.0465 8.30086C9.5495 7.74017 8.8892 7.50769 8.5626 7.77436ZM10.0536 8.30086C9.5566 7.74017 8.8892 7.50769 8.5697 7.77436C8.2502 8.04103 8.3993 8.71111 8.8963 9.2718C9.4004 9.83248 10.0678 10.0718 10.3873 9.79829C10.6997 9.52479 10.5577 8.86154 10.0536 8.30086ZM15.1727 7.77436C14.8603 7.50769 14.1858 7.74017 13.6888 8.30086C13.1847 8.86154 13.0356 9.53162 13.3551 9.79829C13.6746 10.0718 14.342 9.83248 14.8461 9.2718C15.3431 8.71111 15.4993 8.04103 15.1727 7.77436ZM15.2082 28.759V18.5368C15.2082 18.0034 15.0449 17.4906 14.7325 17.053C14.129 16.1983 13.0285 15.665 11.8712 15.665C10.7068 15.665 9.6134 16.1983 9.0099 17.0462C8.6975 17.4906 8.5271 18.0034 8.5271 18.5368V28.6906C7.9378 28.9778 7.5331 29.5727 7.5331 30.2496C7.5331 31.2205 8.3496 32.0068 9.3578 32.0068C10.366 32.0068 11.1825 31.2205 11.1825 30.2496C11.1825 29.6752 10.8914 29.1692 10.4441 28.841V18.5368C10.4441 18.3795 10.4938 18.2291 10.5861 18.0923C10.8346 17.7368 11.3458 17.5111 11.8712 17.5111C12.3966 17.5111 12.9007 17.7368 13.1492 18.0923C13.2415 18.2222 13.2912 18.3795 13.2912 18.5368V28.759C12.7729 29.0667 12.425 29.6205 12.425 30.2496C12.425 31.2205 13.2486 32.0068 14.2497 32.0068C15.2579 32.0068 16.0815 31.2205 16.0815 30.2496C16.0744 29.6205 15.7265 29.0667 15.2082 28.759ZM9.3578 30.7077C9.088 30.7077 8.875 30.5026 8.875 30.2427C8.875 29.9897 9.088 29.7778 9.3578 29.7778C9.6205 29.7778 9.8406 29.9897 9.8406 30.2427C9.8406 30.5094 9.6205 30.7077 9.3578 30.7077ZM14.2497 30.7077C13.987 30.7077 13.7669 30.5026 13.7669 30.2427C13.7669 29.9897 13.987 29.7778 14.2497 29.7778C14.5195 29.7778 14.7396 29.9897 14.7396 30.2427C14.7325 30.5094 14.5195 30.7077 14.2497 30.7077ZM10.0536 8.30086C9.5566 7.74017 8.8892 7.50769 8.5697 7.77436C8.2502 8.04103 8.3993 8.71111 8.8963 9.2718C9.4004 9.83248 10.0678 10.0718 10.3873 9.79829C10.6997 9.52479 10.5577 8.86154 10.0536 8.30086ZM15.1727 7.77436C14.8603 7.50769 14.1858 7.74017 13.6888 8.30086C13.1847 8.86154 13.0356 9.53162 13.3551 9.79829C13.6746 10.0718 14.342 9.83248 14.8461 9.2718C15.3431 8.71111 15.4993 8.04103 15.1727 7.77436Z" fill="url(#paint1_linear_126_272)"/>
<path d="M54.9113 14.7623V17.2512H58.3619V25.8461H61.3723V17.2512H64.8229V14.7623H54.9113Z" fill="#450072"/>
<path d="M37.1684 17.4837C38.844 17.4837 40.2072 18.7965 40.2072 20.4102C40.2072 22.0238 38.844 23.3367 37.1684 23.3367C35.4928 23.3367 34.1296 22.0238 34.1296 20.4102C34.1296 18.7965 35.4928 17.4837 37.1684 17.4837ZM37.1684 14.7623C33.9308 14.7623 31.3038 17.2922 31.3038 20.4102C31.3038 23.5281 33.9308 26.058 37.1684 26.058C40.406 26.058 43.033 23.5281 43.033 20.4102C43.0401 17.2922 40.4131 14.7623 37.1684 14.7623Z" fill="#450072"/>
<path d="M71.6818 17.4837C73.3574 17.4837 74.7206 18.7965 74.7206 20.4102C74.7206 22.0238 73.3574 23.3367 71.6818 23.3367C70.0062 23.3367 68.643 22.0238 68.643 20.4102C68.643 18.7965 70.0062 17.4837 71.6818 17.4837ZM71.6818 14.7623C68.4442 14.7623 65.8172 17.2922 65.8172 20.4102C65.8172 23.5281 68.4442 26.058 71.6818 26.058C74.9194 26.058 77.5464 23.5281 77.5464 20.4102C77.5464 17.2922 74.9194 14.7623 71.6818 14.7623Z" fill="#450072"/>
<path d="M86.2227 15.3229C85.5624 15.022 84.7814 14.8716 83.8726 14.8716H79.7688V25.716H82.6159V22.2904H83.8726C85.25 22.2904 86.3292 21.9622 87.1031 21.2989C87.8841 20.6357 88.2746 19.7263 88.2746 18.5639C88.2746 17.8049 88.0971 17.1485 87.7421 16.5947C87.3871 16.0477 86.883 15.6237 86.2227 15.3229ZM83.4324 20.1844H82.6159V16.9707H83.4324C84.7317 16.9707 85.3849 17.5041 85.3849 18.5707C85.3849 19.6442 84.7388 20.1844 83.4324 20.1844Z" fill="#450072"/>
<path d="M97.1919 20.8203C97.1919 22.5571 96.4677 23.4186 95.0122 23.4186C93.5567 23.4186 92.8325 22.5571 92.8325 20.8203V14.8716H89.8221V21.0254C89.8221 22.6049 90.2765 23.822 91.1711 24.6767C92.0728 25.5246 93.3579 25.9485 95.0122 25.9485C96.6807 25.9485 97.9658 25.5246 98.8604 24.6767C99.755 23.822 100.202 22.6049 100.202 21.0254V14.8716H97.1919V20.8203Z" fill="#450072"/>
<path d="M106.379 19.0563C105.733 18.8716 105.293 18.7007 105.059 18.5434C104.824 18.3793 104.704 18.1605 104.704 17.887C104.704 17.2511 105.215 16.9298 106.251 16.9298C106.741 16.9298 107.274 16.9981 107.828 17.1486C108.389 17.2921 108.857 17.4836 109.255 17.7298L109.624 15.4939C109.205 15.234 108.673 15.0289 108.034 14.8785C107.395 14.728 106.756 14.6528 106.109 14.6528C104.789 14.6528 103.738 14.9537 102.978 15.5486C102.212 16.1366 101.828 16.9571 101.828 17.9964C101.828 18.8648 102.098 19.5622 102.63 20.0887C103.163 20.6152 104.036 21.046 105.257 21.3674C105.754 21.5041 106.152 21.6409 106.429 21.7571C106.706 21.8802 106.898 22.0033 107.011 22.1468C107.125 22.2768 107.182 22.4477 107.182 22.6528C107.182 22.981 107.032 23.234 106.741 23.4118C106.45 23.5896 106.031 23.6785 105.478 23.6785C104.86 23.6785 104.228 23.5896 103.575 23.4118C102.922 23.234 102.361 23.0084 101.885 22.7212L101.622 25.0323C101.899 25.2101 102.247 25.3742 102.68 25.5041C103.106 25.6409 103.575 25.7503 104.086 25.8323C104.59 25.9144 105.101 25.9554 105.605 25.9554C107.04 25.9554 108.154 25.6545 108.949 25.0528C109.745 24.4511 110.142 23.6033 110.142 22.5092C110.142 21.6409 109.851 20.9434 109.269 20.4169C108.687 19.8768 107.721 19.4255 106.379 19.0563Z" fill="#450072"/>
<path d="M127.332 14.8784L124.513 21.5109H123.157C123.008 21.1485 122.639 20.8887 122.206 20.8887C121.638 20.8887 121.176 21.3331 121.176 21.8801C121.176 22.4272 121.638 22.8716 122.206 22.8716C122.632 22.8716 123.001 22.6186 123.157 22.2631H124.201L123.058 24.9571H116.817V14.8716H115.901V25.716H122.731H123.668L125.109 22.2494H130.548L131.982 25.716H132.976L128.354 14.8716H127.332V14.8784ZM122.206 22.2289C122 22.2289 121.836 22.0716 121.836 21.8733C121.836 21.675 122 21.5178 122.206 21.5178C122.411 21.5178 122.575 21.675 122.575 21.8733C122.575 22.0716 122.404 22.2289 122.206 22.2289ZM125.408 21.5109L127.815 15.7331L130.214 21.5109H125.408Z" fill="#450072"/>
<path d="M141.375 20.875C140.963 20.4032 140.367 20.0955 139.614 19.9656C140.197 19.7742 140.637 19.4733 140.956 19.0562C141.269 18.6391 141.425 18.1468 141.425 17.5725C141.425 16.7109 141.12 16.0545 140.516 15.5759C139.92 15.1041 139.061 14.8716 137.974 14.8716H134.368V25.716H138.28C139.48 25.716 140.388 25.4562 141.034 24.9297C141.681 24.4101 142 23.6579 142 22.6733C142 21.9554 141.787 21.3605 141.375 20.875ZM135.241 15.6237H137.854C139.622 15.6237 140.502 16.2801 140.502 17.593C140.502 18.9742 139.65 19.6648 137.939 19.6648H135.241V15.6237ZM140.346 24.3759C139.87 24.7656 139.174 24.9639 138.244 24.9639H135.241V20.4237H138.145C140.09 20.4237 141.063 21.1759 141.063 22.6801C141.063 23.4186 140.829 23.9861 140.346 24.3759Z" fill="#450072"/>
<path d="M50.6443 17.251H52.9802V14.7143H50.6443H50.5662C49.6574 14.7143 48.8267 14.8442 48.067 15.1177C47.3073 15.3912 46.6612 15.7741 46.1145 16.2801C45.5678 16.7792 45.1418 17.3673 44.8365 18.051C44.5312 18.7348 44.3821 19.4938 44.3821 20.3211C44.3821 21.4698 44.6306 22.4476 45.1276 23.2818C45.6175 24.1092 46.3275 24.7519 47.2363 25.2032C48.1451 25.6545 49.2385 25.8801 50.4952 25.8801C50.5449 25.8801 50.5946 25.8801 50.6443 25.8733V25.8801H52.9802V23.3433H50.6443C49.6929 23.3228 48.9261 23.0493 48.3652 22.5297C47.783 21.9758 47.4848 21.2374 47.4848 20.3074C47.4848 19.3775 47.783 18.6322 48.3652 18.0784C48.9332 17.545 49.6929 17.2647 50.6443 17.251Z" fill="#450072"/>
<defs>
<linearGradient id="paint0_linear_126_272" x1="1.37892" y1="7.24791" x2="21.5712" y2="28.2151" gradientUnits="userSpaceOnUse">
<stop offset="0.000931042" stop-color="#5731E2"/>
<stop offset="1" stop-color="#450072"/>
</linearGradient>
<linearGradient id="paint1_linear_126_272" x1="2.83099" y1="3.95965" x2="17.5525" y2="30.4366" gradientUnits="userSpaceOnUse">
<stop offset="0.000931148" stop-color="#16D2E2"/>
<stop offset="1" stop-color="#17004A" stop-opacity="0"/>
</linearGradient>
</defs>
</svg>
