<svg width="290" height="68" viewBox="0 0 290 68"  xmlns="http://www.w3.org/2000/svg">
  <path d="M20.532 17.6393C19.517 16.4479 18.154 15.9538 17.5015 16.5205C16.849 17.0872 17.1535 18.5111 18.1685 19.7026C19.198 20.894 20.561 21.4026 21.2135 20.8214C21.8515 20.2402 21.5615 18.8308 20.532 17.6393ZM30.9865 16.5205C30.3485 15.9538 28.971 16.4479 27.956 17.6393C26.9265 18.8308 26.622 20.2547 27.2745 20.8214C27.927 21.4026 29.29 20.894 30.3195 19.7026C31.3345 18.5111 31.6535 17.0872 30.9865 16.5205ZM30.9865 16.5205C30.3485 15.9538 28.971 16.4479 27.956 17.6393C26.9265 18.8308 26.622 20.2547 27.2745 20.8214C27.927 21.4026 29.29 20.894 30.3195 19.7026C31.3345 18.5111 31.6535 17.0872 30.9865 16.5205ZM17.487 16.5205C16.8345 17.0872 17.139 18.5111 18.154 19.7026C19.1835 20.894 20.5465 21.4026 21.199 20.8214C21.837 20.2547 21.547 18.8453 20.5175 17.6393C19.5025 16.4479 18.154 15.9538 17.487 16.5205ZM44.7615 48.7624C42.7025 48.7624 41.035 50.4479 41.035 52.4966C41.035 53.7752 41.673 54.9086 42.659 55.5769C42.369 56.3034 41.6585 56.812 40.832 56.812C39.759 56.812 38.889 55.9402 38.889 54.865V40.1171C38.889 37.5308 38.2075 35.0026 36.9315 32.794C35.6265 30.5128 33.7415 28.6821 31.5375 27.3889C32.741 26.706 33.843 25.8342 34.8145 24.8316C37.062 26.3863 38.947 28.4205 40.3245 30.8034C41.789 33.3462 42.6155 36.2085 42.775 39.1581C41.7455 39.812 41.0495 40.9744 41.0495 42.2966C41.0495 44.3598 42.717 46.0308 44.776 46.0308C46.835 46.0308 48.5025 44.3598 48.5025 42.2966C48.5025 40.9453 47.7775 39.7829 46.719 39.1145C46.5595 35.4966 45.53 31.9513 43.7175 28.8274C42.079 25.9795 39.8025 23.5385 37.1345 21.6496C38.2945 19.5137 38.9035 17.1308 38.9035 14.6607C38.889 6.59658 32.3205 0 24.244 0C16.153 0 9.5845 6.59658 9.5845 14.6897C9.5845 17.1598 10.208 19.5427 11.3535 21.6786C8.6855 23.5675 6.409 25.994 4.7705 28.8564C2.9725 31.9803 1.9285 35.5256 1.7835 39.1436C0.725 39.7829 0 40.9598 0 42.3111C0 44.3744 1.6675 46.0453 3.7265 46.0453C5.7855 46.0453 7.453 44.3744 7.453 42.3111C7.453 40.9889 6.7715 39.841 5.7275 39.1727C5.8725 36.2231 6.7135 33.3607 8.178 30.818C9.541 28.435 11.4405 26.4009 13.688 24.8462C14.6595 25.8487 15.7615 26.7205 16.965 27.4034C14.761 28.6821 12.876 30.5274 11.571 32.8085C10.295 35.0171 9.6135 37.5453 9.6135 40.1316V54.8795C9.6135 55.9547 8.7435 56.8265 7.6705 56.8265C6.844 56.8265 6.1335 56.318 5.858 55.5915C6.8295 54.9231 7.4675 53.7897 7.4675 52.5111C7.4675 50.4624 5.8 48.7769 3.741 48.7769C1.682 48.7624 0 50.4479 0 52.4966C0 53.8624 0.7395 55.0684 1.8415 55.7077C2.262 58.5556 4.6835 60.7496 7.6415 60.7496C10.875 60.7496 13.514 58.1051 13.514 54.865V40.1171C13.514 38.2282 13.9925 36.3684 14.935 34.7556C16.849 31.4282 20.416 29.365 24.244 29.365C28.0575 29.365 31.6245 31.4427 33.5385 34.7556C34.481 36.3684 34.9595 38.2282 34.9595 40.1171V54.865C34.9595 58.1051 37.5985 60.7496 40.832 60.7496C43.79 60.7496 46.226 58.5556 46.632 55.7077C47.734 55.0684 48.4735 53.8624 48.4735 52.4966C48.4735 50.4479 46.8205 48.7624 44.7615 48.7624ZM44.7615 41.3231C45.298 41.3231 45.7475 41.7735 45.7475 42.3111C45.7475 42.8633 45.298 43.3137 44.7615 43.3137C44.2105 43.3137 43.7755 42.8633 43.7755 42.3111C43.7755 41.7735 44.2105 41.3231 44.7615 41.3231ZM3.7265 43.2991C3.19 43.2991 2.7405 42.8487 2.7405 42.2966C2.7405 41.759 3.19 41.3085 3.7265 41.3085C4.2775 41.3085 4.727 41.759 4.727 42.2966C4.7125 42.8633 4.2775 43.2991 3.7265 43.2991ZM3.7265 53.4991C3.19 53.4991 2.7405 53.0487 2.7405 52.4966C2.7405 51.959 3.19 51.5085 3.7265 51.5085C4.2775 51.5085 4.727 51.959 4.727 52.4966C4.7125 53.0487 4.2775 53.4991 3.7265 53.4991ZM15.631 21.0974C14.239 19.2231 13.514 17 13.514 14.6897C13.514 8.74701 18.328 3.93761 24.244 3.93761C30.16 3.93761 34.9595 8.76154 34.9595 14.6897C34.9595 17 34.2345 19.2231 32.857 21.0974C30.827 23.8145 27.608 25.4419 24.244 25.4419C20.88 25.4419 17.6465 23.8145 15.631 21.0974ZM44.7615 53.4991C44.2105 53.4991 43.7755 53.0487 43.7755 52.4966C43.7755 51.959 44.2105 51.5085 44.7615 51.5085C45.298 51.5085 45.7475 51.959 45.7475 52.4966C45.733 53.0487 45.298 53.4991 44.7615 53.4991ZM27.956 17.6393C26.9265 18.8308 26.622 20.2547 27.2745 20.8214C27.927 21.4026 29.29 20.894 30.3195 19.7026C31.3345 18.5111 31.6535 17.0872 30.9865 16.5205C30.3485 15.9538 28.971 16.4479 27.956 17.6393ZM17.487 16.5205C16.8345 17.0872 17.139 18.5111 18.154 19.7026C19.1835 20.894 20.5465 21.4026 21.199 20.8214C21.837 20.2547 21.547 18.8453 20.5175 17.6393C19.5025 16.4479 18.154 15.9538 17.487 16.5205ZM20.532 17.6393C19.517 16.4479 18.154 15.9538 17.5015 16.5205C16.849 17.0872 17.1535 18.5111 18.1685 19.7026C19.198 20.894 20.561 21.4026 21.2135 20.8214C21.8515 20.2402 21.5615 18.8308 20.532 17.6393ZM30.9865 16.5205C30.3485 15.9538 28.971 16.4479 27.956 17.6393C26.9265 18.8308 26.622 20.2547 27.2745 20.8214C27.927 21.4026 29.29 20.894 30.3195 19.7026C31.3345 18.5111 31.6535 17.0872 30.9865 16.5205ZM31.059 61.1128V39.3906C31.059 38.2573 30.7255 37.1675 30.0875 36.2376C28.855 34.4214 26.6075 33.288 24.244 33.288C21.866 33.288 19.633 34.4214 18.4005 36.2231C17.7625 37.1675 17.4145 38.2573 17.4145 39.3906V60.9675C16.211 61.5778 15.3845 62.8419 15.3845 64.2803C15.3845 66.3436 17.052 68.0145 19.111 68.0145C21.17 68.0145 22.8375 66.3436 22.8375 64.2803C22.8375 63.0598 22.243 61.9846 21.3295 61.2872V39.3906C21.3295 39.0564 21.431 38.7368 21.6195 38.4462C22.127 37.6906 23.171 37.2111 24.244 37.2111C25.317 37.2111 26.3465 37.6906 26.854 38.4462C27.0425 38.7222 27.144 39.0564 27.144 39.3906V61.1128C26.0855 61.7667 25.375 62.9436 25.375 64.2803C25.375 66.3436 27.057 68.0145 29.1015 68.0145C31.1605 68.0145 32.8425 66.3436 32.8425 64.2803C32.828 62.9436 32.1175 61.7667 31.059 61.1128ZM19.111 65.2539C18.56 65.2539 18.125 64.8179 18.125 64.2658C18.125 63.7282 18.56 63.2778 19.111 63.2778C19.6475 63.2778 20.097 63.7282 20.097 64.2658C20.097 64.8325 19.6475 65.2539 19.111 65.2539ZM29.1015 65.2539C28.565 65.2539 28.1155 64.8179 28.1155 64.2658C28.1155 63.7282 28.565 63.2778 29.1015 63.2778C29.6525 63.2778 30.102 63.7282 30.102 64.2658C30.0875 64.8325 29.6525 65.2539 29.1015 65.2539ZM20.532 17.6393C19.517 16.4479 18.154 15.9538 17.5015 16.5205C16.849 17.0872 17.1535 18.5111 18.1685 19.7026C19.198 20.894 20.561 21.4026 21.2135 20.8214C21.8515 20.2402 21.5615 18.8308 20.532 17.6393ZM30.9865 16.5205C30.3485 15.9538 28.971 16.4479 27.956 17.6393C26.9265 18.8308 26.622 20.2547 27.2745 20.8214C27.927 21.4026 29.29 20.894 30.3195 19.7026C31.3345 18.5111 31.6535 17.0872 30.9865 16.5205Z" fill="url(#paint0_linear_26_352)" />
<path d="M20.532 17.6393C19.517 16.4479 18.154 15.9538 17.5015 16.5205C16.849 17.0872 17.1535 18.5111 18.1685 19.7026C19.198 20.894 20.561 21.4026 21.2135 20.8214C21.8515 20.2402 21.5615 18.8308 20.532 17.6393ZM30.9865 16.5205C30.3485 15.9538 28.971 16.4479 27.956 17.6393C26.9265 18.8308 26.622 20.2547 27.2745 20.8214C27.927 21.4026 29.29 20.894 30.3195 19.7026C31.3345 18.5111 31.6535 17.0872 30.9865 16.5205ZM30.9865 16.5205C30.3485 15.9538 28.971 16.4479 27.956 17.6393C26.9265 18.8308 26.622 20.2547 27.2745 20.8214C27.927 21.4026 29.29 20.894 30.3195 19.7026C31.3345 18.5111 31.6535 17.0872 30.9865 16.5205ZM17.487 16.5205C16.8345 17.0872 17.139 18.5111 18.154 19.7026C19.1835 20.894 20.5465 21.4026 21.199 20.8214C21.837 20.2547 21.547 18.8453 20.5175 17.6393C19.5025 16.4479 18.154 15.9538 17.487 16.5205ZM44.7615 48.7624C42.7025 48.7624 41.035 50.4479 41.035 52.4966C41.035 53.7752 41.673 54.9086 42.659 55.5769C42.369 56.3034 41.6585 56.812 40.832 56.812C39.759 56.812 38.889 55.9402 38.889 54.865V40.1171C38.889 37.5308 38.2075 35.0026 36.9315 32.794C35.6265 30.5128 33.7415 28.6821 31.5375 27.3889C32.741 26.706 33.843 25.8342 34.8145 24.8316C37.062 26.3863 38.947 28.4205 40.3245 30.8034C41.789 33.3462 42.6155 36.2085 42.775 39.1581C41.7455 39.812 41.0495 40.9744 41.0495 42.2966C41.0495 44.3598 42.717 46.0308 44.776 46.0308C46.835 46.0308 48.5025 44.3598 48.5025 42.2966C48.5025 40.9453 47.7775 39.7829 46.719 39.1145C46.5595 35.4966 45.53 31.9513 43.7175 28.8274C42.079 25.9795 39.8025 23.5385 37.1345 21.6496C38.2945 19.5137 38.9035 17.1308 38.9035 14.6607C38.889 6.59658 32.3205 0 24.244 0C16.153 0 9.5845 6.59658 9.5845 14.6897C9.5845 17.1598 10.208 19.5427 11.3535 21.6786C8.6855 23.5675 6.409 25.994 4.7705 28.8564C2.9725 31.9803 1.9285 35.5256 1.7835 39.1436C0.725 39.7829 0 40.9598 0 42.3111C0 44.3744 1.6675 46.0453 3.7265 46.0453C5.7855 46.0453 7.453 44.3744 7.453 42.3111C7.453 40.9889 6.7715 39.841 5.7275 39.1727C5.8725 36.2231 6.7135 33.3607 8.178 30.818C9.541 28.435 11.4405 26.4009 13.688 24.8462C14.6595 25.8487 15.7615 26.7205 16.965 27.4034C14.761 28.6821 12.876 30.5274 11.571 32.8085C10.295 35.0171 9.6135 37.5453 9.6135 40.1316V54.8795C9.6135 55.9547 8.7435 56.8265 7.6705 56.8265C6.844 56.8265 6.1335 56.318 5.858 55.5915C6.8295 54.9231 7.4675 53.7897 7.4675 52.5111C7.4675 50.4624 5.8 48.7769 3.741 48.7769C1.682 48.7624 0 50.4479 0 52.4966C0 53.8624 0.7395 55.0684 1.8415 55.7077C2.262 58.5556 4.6835 60.7496 7.6415 60.7496C10.875 60.7496 13.514 58.1051 13.514 54.865V40.1171C13.514 38.2282 13.9925 36.3684 14.935 34.7556C16.849 31.4282 20.416 29.365 24.244 29.365C28.0575 29.365 31.6245 31.4427 33.5385 34.7556C34.481 36.3684 34.9595 38.2282 34.9595 40.1171V54.865C34.9595 58.1051 37.5985 60.7496 40.832 60.7496C43.79 60.7496 46.226 58.5556 46.632 55.7077C47.734 55.0684 48.4735 53.8624 48.4735 52.4966C48.4735 50.4479 46.8205 48.7624 44.7615 48.7624ZM44.7615 41.3231C45.298 41.3231 45.7475 41.7735 45.7475 42.3111C45.7475 42.8633 45.298 43.3137 44.7615 43.3137C44.2105 43.3137 43.7755 42.8633 43.7755 42.3111C43.7755 41.7735 44.2105 41.3231 44.7615 41.3231ZM3.7265 43.2991C3.19 43.2991 2.7405 42.8487 2.7405 42.2966C2.7405 41.759 3.19 41.3085 3.7265 41.3085C4.2775 41.3085 4.727 41.759 4.727 42.2966C4.7125 42.8633 4.2775 43.2991 3.7265 43.2991ZM3.7265 53.4991C3.19 53.4991 2.7405 53.0487 2.7405 52.4966C2.7405 51.959 3.19 51.5085 3.7265 51.5085C4.2775 51.5085 4.727 51.959 4.727 52.4966C4.7125 53.0487 4.2775 53.4991 3.7265 53.4991ZM15.631 21.0974C14.239 19.2231 13.514 17 13.514 14.6897C13.514 8.74701 18.328 3.93761 24.244 3.93761C30.16 3.93761 34.9595 8.76154 34.9595 14.6897C34.9595 17 34.2345 19.2231 32.857 21.0974C30.827 23.8145 27.608 25.4419 24.244 25.4419C20.88 25.4419 17.6465 23.8145 15.631 21.0974ZM44.7615 53.4991C44.2105 53.4991 43.7755 53.0487 43.7755 52.4966C43.7755 51.959 44.2105 51.5085 44.7615 51.5085C45.298 51.5085 45.7475 51.959 45.7475 52.4966C45.733 53.0487 45.298 53.4991 44.7615 53.4991ZM27.956 17.6393C26.9265 18.8308 26.622 20.2547 27.2745 20.8214C27.927 21.4026 29.29 20.894 30.3195 19.7026C31.3345 18.5111 31.6535 17.0872 30.9865 16.5205C30.3485 15.9538 28.971 16.4479 27.956 17.6393ZM17.487 16.5205C16.8345 17.0872 17.139 18.5111 18.154 19.7026C19.1835 20.894 20.5465 21.4026 21.199 20.8214C21.837 20.2547 21.547 18.8453 20.5175 17.6393C19.5025 16.4479 18.154 15.9538 17.487 16.5205ZM20.532 17.6393C19.517 16.4479 18.154 15.9538 17.5015 16.5205C16.849 17.0872 17.1535 18.5111 18.1685 19.7026C19.198 20.894 20.561 21.4026 21.2135 20.8214C21.8515 20.2402 21.5615 18.8308 20.532 17.6393ZM30.9865 16.5205C30.3485 15.9538 28.971 16.4479 27.956 17.6393C26.9265 18.8308 26.622 20.2547 27.2745 20.8214C27.927 21.4026 29.29 20.894 30.3195 19.7026C31.3345 18.5111 31.6535 17.0872 30.9865 16.5205ZM31.059 61.1128V39.3906C31.059 38.2573 30.7255 37.1675 30.0875 36.2376C28.855 34.4214 26.6075 33.288 24.244 33.288C21.866 33.288 19.633 34.4214 18.4005 36.2231C17.7625 37.1675 17.4145 38.2573 17.4145 39.3906V60.9675C16.211 61.5778 15.3845 62.8419 15.3845 64.2803C15.3845 66.3436 17.052 68.0145 19.111 68.0145C21.17 68.0145 22.8375 66.3436 22.8375 64.2803C22.8375 63.0598 22.243 61.9846 21.3295 61.2872V39.3906C21.3295 39.0564 21.431 38.7368 21.6195 38.4462C22.127 37.6906 23.171 37.2111 24.244 37.2111C25.317 37.2111 26.3465 37.6906 26.854 38.4462C27.0425 38.7222 27.144 39.0564 27.144 39.3906V61.1128C26.0855 61.7667 25.375 62.9436 25.375 64.2803C25.375 66.3436 27.057 68.0145 29.1015 68.0145C31.1605 68.0145 32.8425 66.3436 32.8425 64.2803C32.828 62.9436 32.1175 61.7667 31.059 61.1128ZM19.111 65.2539C18.56 65.2539 18.125 64.8179 18.125 64.2658C18.125 63.7282 18.56 63.2778 19.111 63.2778C19.6475 63.2778 20.097 63.7282 20.097 64.2658C20.097 64.8325 19.6475 65.2539 19.111 65.2539ZM29.1015 65.2539C28.565 65.2539 28.1155 64.8179 28.1155 64.2658C28.1155 63.7282 28.565 63.2778 29.1015 63.2778C29.6525 63.2778 30.102 63.7282 30.102 64.2658C30.0875 64.8325 29.6525 65.2539 29.1015 65.2539ZM20.532 17.6393C19.517 16.4479 18.154 15.9538 17.5015 16.5205C16.849 17.0872 17.1535 18.5111 18.1685 19.7026C19.198 20.894 20.561 21.4026 21.2135 20.8214C21.8515 20.2402 21.5615 18.8308 20.532 17.6393ZM30.9865 16.5205C30.3485 15.9538 28.971 16.4479 27.956 17.6393C26.9265 18.8308 26.622 20.2547 27.2745 20.8214C27.927 21.4026 29.29 20.894 30.3195 19.7026C31.3345 18.5111 31.6535 17.0872 30.9865 16.5205Z" fill="url(#paint1_linear_26_352)"/>
<path d="M112.143 31.37V36.6589H119.19V54.923H125.338V36.6589H132.385V31.37H112.143Z" />
<path d="M75.9075 37.1529C79.3295 37.1529 82.1135 39.9427 82.1135 43.3717C82.1135 46.8008 79.3295 49.5905 75.9075 49.5905C72.4855 49.5905 69.7015 46.8008 69.7015 43.3717C69.7015 39.9427 72.4855 37.1529 75.9075 37.1529ZM75.9075 31.37C69.2955 31.37 63.9305 36.7461 63.9305 43.3717C63.9305 49.9974 69.2955 55.3734 75.9075 55.3734C82.5195 55.3734 87.8845 49.9974 87.8845 43.3717C87.899 36.7461 82.534 31.37 75.9075 31.37Z" />
<path d="M146.392 37.1529C149.814 37.1529 152.598 39.9427 152.598 43.3717C152.598 46.8008 149.814 49.5905 146.392 49.5905C142.97 49.5905 140.186 46.8008 140.186 43.3717C140.186 39.9427 142.97 37.1529 146.392 37.1529ZM146.392 31.37C139.78 31.37 134.415 36.7461 134.415 43.3717C134.415 49.9974 139.78 55.3734 146.392 55.3734C153.004 55.3734 158.369 49.9974 158.369 43.3717C158.369 36.7461 153.004 31.37 146.392 31.37Z" />
<path d="M176.088 32.5614C174.739 31.9221 173.144 31.6024 171.288 31.6024H162.907V54.6469H168.722V47.3674H171.288C174.101 47.3674 176.305 46.67 177.886 45.2606C179.481 43.8512 180.278 41.9187 180.278 39.4486C180.278 37.8358 179.916 36.4409 179.191 35.264C178.466 34.1016 177.436 33.2007 176.088 32.5614ZM170.389 42.8922H168.722V36.0631H170.389C173.043 36.0631 174.377 37.1965 174.377 39.4631C174.377 41.7443 173.057 42.8922 170.389 42.8922Z"/>
<path d="M198.49 44.2435C198.49 47.9341 197.011 49.7648 194.039 49.7648C191.066 49.7648 189.587 47.9341 189.587 44.2435V31.6024H183.439V44.6794C183.439 48.0358 184.367 50.6221 186.194 52.4383C188.036 54.2401 190.66 55.1409 194.039 55.1409C197.446 55.1409 200.071 54.2401 201.898 52.4383C203.725 50.6221 204.638 48.0358 204.638 44.6794V31.6024H198.49V44.2435Z" />
<path d="M217.253 40.4947C215.934 40.1024 215.035 39.7391 214.556 39.405C214.078 39.0562 213.831 38.5913 213.831 38.0101C213.831 36.6588 214.875 35.9759 216.992 35.9759C217.993 35.9759 219.08 36.1212 220.211 36.4409C221.357 36.746 222.314 37.1528 223.126 37.6759L223.88 32.9246C223.024 32.3725 221.937 31.9366 220.632 31.6169C219.327 31.2973 218.022 31.1374 216.702 31.1374C214.005 31.1374 211.859 31.7768 210.308 33.0409C208.742 34.2904 207.959 36.034 207.959 38.2426C207.959 40.0879 208.51 41.5699 209.597 42.6887C210.685 43.8075 212.468 44.7229 214.962 45.4058C215.977 45.6964 216.789 45.987 217.355 46.234C217.92 46.4956 218.312 46.7571 218.544 47.0622C218.776 47.3383 218.892 47.7015 218.892 48.1374C218.892 48.8349 218.587 49.3725 217.993 49.7503C217.398 50.128 216.543 50.3169 215.412 50.3169C214.15 50.3169 212.86 50.128 211.526 49.7503C210.192 49.3725 209.046 48.893 208.075 48.2827L207.538 53.1938C208.104 53.5716 208.814 53.9203 209.699 54.1964C210.569 54.487 211.526 54.7195 212.57 54.8938C213.599 55.0682 214.643 55.1554 215.673 55.1554C218.602 55.1554 220.878 54.5161 222.502 53.2374C224.126 51.9588 224.938 50.1571 224.938 47.8323C224.938 45.987 224.344 44.505 223.155 43.3862C221.966 42.2383 219.994 41.2793 217.253 40.4947Z" />
<path d="M260.043 31.617L254.286 45.711H251.517C251.212 44.9409 250.458 44.3888 249.574 44.3888C248.414 44.3888 247.471 45.3332 247.471 46.4956C247.471 47.658 248.414 48.6024 249.574 48.6024C250.444 48.6024 251.198 48.0648 251.517 47.3093H253.649L251.314 53.0341H238.569V31.6024H236.698V54.6469H250.647H252.561L255.504 47.2802H266.611L269.54 54.6469H271.57L262.131 31.6024H260.043V31.617ZM249.574 47.2366C249.153 47.2366 248.82 46.9024 248.82 46.4811C248.82 46.0597 249.153 45.7255 249.574 45.7255C249.994 45.7255 250.328 46.0597 250.328 46.4811C250.328 46.9024 249.98 47.2366 249.574 47.2366ZM256.114 45.711L261.029 33.4332L265.93 45.711H256.114Z" />
<path d="M288.724 44.3597C287.883 43.3571 286.665 42.7033 285.128 42.4272C286.317 42.0204 287.216 41.3811 287.868 40.4948C288.506 39.6084 288.825 38.5623 288.825 37.3418C288.825 35.511 288.202 34.1161 286.969 33.099C285.751 32.0965 283.997 31.6024 281.778 31.6024H274.412V54.6469H282.402C284.852 54.6469 286.708 54.0948 288.028 52.976C289.347 51.8717 290 50.2734 290 48.1811C290 46.6554 289.565 45.3913 288.724 44.3597ZM276.196 33.2007H281.532C285.142 33.2007 286.94 34.5956 286.94 37.3854C286.94 40.3204 285.2 41.7879 281.706 41.7879H276.196V33.2007ZM286.621 51.799C285.65 52.6272 284.229 53.0486 282.329 53.0486H276.196V43.4007H282.126C286.099 43.4007 288.086 44.999 288.086 48.1956C288.086 49.7648 287.607 50.9708 286.621 51.799Z" />
<path d="M103.429 36.6586H108.199V31.268H103.429H103.269C101.413 31.268 99.7165 31.5441 98.165 32.1253C96.6135 32.7065 95.294 33.5202 94.1775 34.5954C93.061 35.6561 92.191 36.9056 91.5675 38.3586C90.944 39.8116 90.6395 41.4244 90.6395 43.1826C90.6395 45.6236 91.147 47.7014 92.162 49.474C93.1625 51.2321 94.6125 52.5979 96.4685 53.5569C98.3245 54.5159 100.558 54.9954 103.124 54.9954C103.226 54.9954 103.327 54.9954 103.429 54.9809V54.9954H108.199V49.6048H103.429C101.486 49.5612 99.9195 48.98 98.774 47.8757C97.585 46.6988 96.976 45.1296 96.976 43.1535C96.976 41.1774 97.585 39.5937 98.774 38.4168C99.934 37.2834 101.486 36.6877 103.429 36.6586Z" />
<defs>
<linearGradient id="paint0_linear_26_352" x1="2.8161" y1="15.4018" x2="45.7551" y2="58.2525" gradientUnits="userSpaceOnUse">
<stop offset="0.000931042" stop-color="#5731E2"/>
<stop offset="1" stop-color="#450072"/>
</linearGradient>
<linearGradient id="paint1_linear_26_352" x1="5.7816" y1="8.41426" x2="37.709" y2="63.6003" gradientUnits="userSpaceOnUse">
<stop offset="0.000931148" stop-color="#16D2E2"/>
<stop offset="1" stop-color="#17004A" stop-opacity="0"/>
</linearGradient>
</defs>
</svg>
