<svg width="8" height="62" viewBox="0 0 8 62" fill="none" xmlns="http://www.w3.org/2000/svg">
<path d="M2.83619 7.55693V7.23632L2.54479 7.10262C1.34264 6.55104 0.499847 5.33648 0.499847 3.94762C0.499847 2.04846 2.04846 0.499847 3.94762 0.499847C5.84678 0.499847 7.39539 2.04846 7.39539 3.94762C7.39539 5.33648 6.55259 6.55104 5.35044 7.10262L5.05904 7.23632V7.55693V53.8487V54.1693L5.35044 54.303C6.55262 54.8546 7.39539 56.069 7.39539 57.4579C7.39539 59.3571 5.84678 60.9057 3.94762 60.9057C2.04846 60.9057 0.499847 59.3571 0.499847 57.4579C0.499847 56.0509 1.3441 54.8399 2.54035 54.3051L2.83619 54.1728V53.8487V7.55693ZM5.97817 3.94762C5.97817 2.8337 5.06154 1.91706 3.94762 1.91706C2.8337 1.91706 1.91706 2.8337 1.91706 3.94762C1.91706 5.06154 2.8337 5.97817 3.94762 5.97817C5.06154 5.97817 5.97817 5.06154 5.97817 3.94762ZM1.91706 57.4418C1.91706 58.5558 2.8337 59.4724 3.94762 59.4724C5.06154 59.4724 5.97817 58.5558 5.97817 57.4418C5.97817 56.3279 5.06154 55.4113 3.94762 55.4113C2.8337 55.4113 1.91706 56.3279 1.91706 57.4418Z" stroke="#D9D9D9" stroke-width="0.999694"/>
</svg>
