<svg width="8" height="35" viewBox="0 0 8 35" fill="none" xmlns="http://www.w3.org/2000/svg">
<path d="M2.83619 7.55693V7.23632L2.54479 7.10262C1.34264 6.55104 0.499847 5.33648 0.499847 3.94762C0.499847 2.04846 2.04846 0.499847 3.94762 0.499847C5.84678 0.499847 7.39539 2.04846 7.39539 3.94762C7.39539 5.33648 6.55259 6.55104 5.35044 7.10262L5.05904 7.23632V7.55693V27.1016V27.4222L5.35044 27.5559C6.55262 28.1075 7.39539 29.3219 7.39539 30.7108C7.39539 32.6099 5.84678 34.1586 3.94762 34.1586C2.04846 34.1586 0.499847 32.6099 0.499847 30.7108C0.499847 29.3038 1.3441 28.0927 2.54035 27.5579L2.83619 27.4257V27.1016V7.55693ZM5.97817 3.94762C5.97817 2.8337 5.06154 1.91706 3.94762 1.91706C2.8337 1.91706 1.91706 2.8337 1.91706 3.94762C1.91706 5.06154 2.8337 5.97817 3.94762 5.97817C5.06154 5.97817 5.97817 5.06154 5.97817 3.94762ZM1.91706 30.6947C1.91706 31.8087 2.8337 32.7253 3.94762 32.7253C5.06153 32.7253 5.97817 31.8087 5.97817 30.6947C5.97817 29.5808 5.06154 28.6642 3.94762 28.6642C2.8337 28.6642 1.91706 29.5808 1.91706 30.6947Z" stroke="#D9D9D9" stroke-width="0.999694"/>
</svg>
