<svg width="8" height="22" viewBox="0 0 8 22" fill="none" xmlns="http://www.w3.org/2000/svg">
<path d="M2.83619 7.55693V7.23632L2.54479 7.10262C1.34264 6.55104 0.499847 5.33648 0.499847 3.94762C0.499847 2.04846 2.04846 0.499847 3.94762 0.499847C5.84678 0.499847 7.39539 2.04846 7.39539 3.94762C7.39539 5.33648 6.55259 6.55104 5.35044 7.10262L5.05904 7.23632V7.55693V13.7281V14.0487L5.35044 14.1824C6.55262 14.734 7.39539 15.9484 7.39539 17.3372C7.39539 19.2364 5.84678 20.785 3.94762 20.785C2.04846 20.785 0.499847 19.2364 0.499847 17.3372C0.499847 15.9303 1.3441 14.7192 2.54035 14.1844L2.83619 14.0521V13.7281V7.55693ZM5.97817 3.94762C5.97817 2.8337 5.06154 1.91706 3.94762 1.91706C2.8337 1.91706 1.91706 2.8337 1.91706 3.94762C1.91706 5.06153 2.8337 5.97817 3.94762 5.97817C5.06154 5.97817 5.97817 5.06153 5.97817 3.94762ZM1.91706 17.3212C1.91706 18.4351 2.8337 19.3517 3.94762 19.3517C5.06153 19.3517 5.97817 18.4351 5.97817 17.3212C5.97817 16.2073 5.06154 15.2906 3.94762 15.2906C2.8337 15.2906 1.91706 16.2073 1.91706 17.3212Z" stroke="#D9D9D9" stroke-width="0.999694"/>
</svg>
