<svg width="8" height="75" viewBox="0 0 8 75" fill="none" xmlns="http://www.w3.org/2000/svg">
<path d="M2.83619 7.55693V7.23632L2.54479 7.10262C1.34264 6.55104 0.499847 5.33648 0.499847 3.94762C0.499847 2.04846 2.04846 0.499847 3.94762 0.499847C5.84678 0.499847 7.39539 2.04846 7.39539 3.94762C7.39539 5.33648 6.55259 6.55104 5.35044 7.10262L5.05904 7.23632V7.55693V67.2223V67.5429L5.35044 67.6766C6.55262 68.2282 7.39539 69.4426 7.39539 70.8315C7.39539 72.7306 5.84678 74.2792 3.94762 74.2792C2.04846 74.2792 0.499847 72.7306 0.499847 70.8315C0.499847 69.4245 1.3441 68.2134 2.54035 67.6786L2.83619 67.5464V67.2223V7.55693ZM5.97817 3.94762C5.97817 2.8337 5.06154 1.91706 3.94762 1.91706C2.8337 1.91706 1.91706 2.8337 1.91706 3.94762C1.91706 5.06154 2.8337 5.97817 3.94762 5.97817C5.06154 5.97817 5.97817 5.06154 5.97817 3.94762ZM1.91706 70.8154C1.91706 71.9293 2.8337 72.846 3.94762 72.846C5.06154 72.846 5.97817 71.9293 5.97817 70.8154C5.97817 69.7015 5.06154 68.7849 3.94762 68.7849C2.8337 68.7849 1.91706 69.7015 1.91706 70.8154Z" stroke="#D9D9D9" stroke-width="0.999694"/>
</svg>
